<?xml version="1.0" encoding="UTF-8"?>
<svg width="27px" height="29px" viewBox="0 0 27 29" version="1.1" xmlns="http://www.w3.org/2000/svg" xmlns:xlink="http://www.w3.org/1999/xlink">
    <!-- Generator: Sketch 53.2 (72643) - https://sketchapp.com -->
    <title>Combined Shape</title>
    <desc>Created with Sketch.</desc>
    <g id="Page-2" stroke="none" stroke-width="1" fill="none" fill-rule="evenodd">
        <g id="Desktop-Copy-26" transform="translate(-144.000000, -8198.000000)" fill="#848484">
            <g id="footer" transform="translate(75.000000, 8189.000000)">
                <path d="M76.0189448,22.962963 L72,22.962963 L72,34.7777778 L93,34.7777778 L93,22.962963 L88.9810552,22.962963 C88.9936085,23.1402075 89,23.3193021 89,23.5 C89,27.3557658 86.0898509,30.4814815 82.5,30.4814815 C78.9101491,30.4814815 76,27.3557658 76,23.5 C76,23.3193021 76.0063915,23.1402075 76.0189448,22.962963 Z M72,9 L93,9 C94.6568542,9 96,10.3431458 96,12 L96,35 C96,36.6568542 94.6568542,38 93,38 L72,38 C70.3431458,38 69,36.6568542 69,35 L69,12 C69,10.3431458 70.3431458,9 72,9 Z M82.5,28.3333333 C84.9852814,28.3333333 87,26.1693763 87,23.5 C87,20.8306237 84.9852814,18.6666667 82.5,18.6666667 C80.0147186,18.6666667 78,20.8306237 78,23.5 C78,26.1693763 80.0147186,28.3333333 82.5,28.3333333 Z M89,12 L89,17 L93,17 L93,12 L89,12 Z" id="Combined-Shape"></path>
            </g>
        </g>
    </g>
</svg>