<?xml version="1.0" encoding="UTF-8"?>
<svg width="31px" height="22px" viewBox="0 0 31 22" version="1.1" xmlns="http://www.w3.org/2000/svg" xmlns:xlink="http://www.w3.org/1999/xlink">
    <!-- Generator: Sketch 53.2 (72643) - https://sketchapp.com -->
    <title>Group 4</title>
    <desc>Created with Sketch.</desc>
    <g id="Page-2" stroke="none" stroke-width="1" fill="none" fill-rule="evenodd">
        <g id="Desktop-Copy-26" transform="translate(-74.000000, -8200.000000)" fill="#848484">
            <g id="footer" transform="translate(75.000000, 8189.000000)">
                <g id="Group-4">
                    <path d="M30,17.8144895 L30,30 C30,31.6568542 28.6568542,33 27,33 L3,33 C1.34314575,33 2.02906125e-16,31.6568542 0,30 L0,17.7282289 C0.167144366,17.8733608 0.353067704,18.002139 0.556626436,18.1108011 L15.0566414,25.8510794 L29.547232,18.1117149 C29.7080505,18.0258224 29.8594153,17.9261738 30,17.8144895 Z" id="Combined-Shape"></path>
                    <path d="M8.98352968,3.86554804 L25.8109804,21.104062 C26.968332,22.2896855 26.9454131,24.1890422 25.7597895,25.3463938 C24.9370277,26.1495363 23.7276154,26.41179 22.6460829,26.0215819 L8.82052878,21.0334358 L3.99816166,6.93184621 C3.46204356,5.36412704 4.29832146,3.65862997 5.86604063,3.12251187 C6.96152328,2.74788605 8.17480153,3.03706418 8.98352968,3.86554804 Z" id="Rectangle" transform="translate(14.822466, 14.918418) rotate(-45.000000) translate(-14.822466, -14.918418) "></path>
                </g>
            </g>
        </g>
    </g>
</svg>