<svg id="Ebene_1" data-name="Ebene 1" xmlns="http://www.w3.org/2000/svg" viewBox="0 0 28.35 28.35"><defs><style>.cls-1{fill:#fff;}</style></defs><title>Zeichenfläche 1 Kopie</title><path class="cls-1" d="M14.17,6c2.67,0,3,0,4,0a4.29,4.29,0,0,1,3,1.1,4.26,4.26,0,0,1,1.09,3c.05,1.06.06,1.37.06,4s0,3-.06,4a4.29,4.29,0,0,1-1.09,3,4.29,4.29,0,0,1-3,1.09c-1.05.05-1.37.06-4,.06s-3,0-4-.06a4.26,4.26,0,0,1-3-1.09,4.25,4.25,0,0,1-1.1-3c0-1.05-.06-1.37-.06-4s0-3,.06-4a4.22,4.22,0,0,1,1.1-3,4.27,4.27,0,0,1,3-1.1C11.19,6,11.5,6,14.17,6Zm0-1.81c-2.71,0-3.05,0-4.12.06a6,6,0,0,0-4.2,1.62,6,6,0,0,0-1.62,4.2c-.05,1.07-.06,1.41-.06,4.12s0,3.06.06,4.13a6,6,0,0,0,1.62,4.2,6,6,0,0,0,4.2,1.61c1.07.05,1.41.06,4.12.06s3.06,0,4.13-.06a6,6,0,0,0,4.2-1.61,6,6,0,0,0,1.61-4.2c.05-1.07.06-1.41.06-4.13s0-3.05-.06-4.12a6,6,0,0,0-1.61-4.2,6,6,0,0,0-4.2-1.62C17.23,4.19,16.89,4.17,14.17,4.17Z"/><path class="cls-1" d="M14.17,9a5.08,5.08,0,0,0-2,.39,5.08,5.08,0,0,0-2.78,2.78,5.15,5.15,0,0,0,0,3.93,5.16,5.16,0,0,0,2.78,2.78,5.14,5.14,0,1,0,2-9.88Zm0,8.47a3.35,3.35,0,1,1,2.36-1A3.3,3.3,0,0,1,14.17,17.51Z"/><path class="cls-1" d="M19.51,10a1.2,1.2,0,1,0-1.2-1.2A1.2,1.2,0,0,0,19.51,10Z"/></svg>