<svg id="Ebene_1" data-name="Ebene 1" xmlns="http://www.w3.org/2000/svg" viewBox="0 0 28.35 28.35"><defs><style>.cls-1{fill:none;stroke:#fff;stroke-linecap:round;stroke-linejoin:round;stroke-width:1.5px;}</style></defs><title>Zeichenfläche 1_1</title><path class="cls-1" d="M24.43,15.52v7.65H20V16c0-1.79-.63-3-2.22-3a2.41,2.41,0,0,0-2.26,1.62,2.94,2.94,0,0,0-.15,1.08v7.45H11s.06-12.09,0-13.34h9.2C23.1,9.83,24.43,11.42,24.43,15.52ZM6.41,2.39A2.31,2.31,0,1,0,6.35,7h0a2.31,2.31,0,1,0,0-4.62ZM4.18,23.17H8.57V9.83H4.18Z"/></svg>