<svg id="Ebene_1" data-name="Ebene 1" xmlns="http://www.w3.org/2000/svg" viewBox="0 0 28.35 28.35"><defs><style>.cls-1{fill:#fff;}</style></defs><title>Zeichenfläche 1 Kopie 2</title><path class="cls-1" d="M4.71,14.63a9.95,9.95,0,1,0,9.94-10A10,10,0,0,0,4.71,14.63Zm17.86,1.5a8,8,0,0,1-3.09,4.94v0A39.05,39.05,0,0,0,18,15.79,11.42,11.42,0,0,1,22.57,16.13Zm-7.9,6.5h0A8,8,0,0,1,9.86,21,11.31,11.31,0,0,1,16,16.25a34.12,34.12,0,0,1,1.63,5.87A6.6,6.6,0,0,1,14.67,22.63Zm.44-8.11a13.59,13.59,0,0,0-6.67,5.27,8.37,8.37,0,0,1-1.85-5.15h.66c.5,0,1.17,0,1.95-.11a30.35,30.35,0,0,0,5.52-1c.17.31.33.64.47,1ZM13.8,11.74a31.75,31.75,0,0,1-7,.95A8.43,8.43,0,0,1,11,7.42C11.42,8,12.61,9.71,13.8,11.74Zm2.12-.63a41,41,0,0,0-2.78-4.38,10.73,10.73,0,0,1,1.51-.11,8.11,8.11,0,0,1,5.18,1.85,8.46,8.46,0,0,1-.95.93A10.49,10.49,0,0,1,15.92,11.11Zm.87,1.7a12.07,12.07,0,0,0,4.29-3,8.3,8.3,0,0,1,1.62,4.47,19.39,19.39,0,0,0-5.35-.21l0,0h0l-.09-.22c-.09-.21-.19-.41-.27-.61h0Z"/></svg>